<svg id="Layer_1" data-name="Layer 1" xmlns="http://www.w3.org/2000/svg" viewBox="0 0 451.98 106.18"><path d="M17.91,50.67a6.33,6.33,0,0,0,1.71,4.69,6.32,6.32,0,0,0,4.7,1.72h16a8,8,0,0,1,6,2.24,8.26,8.26,0,0,1,2.24,6.11,7.71,7.71,0,0,1-8.21,8.2h-16a6.36,6.36,0,0,0-4.7,1.72,6.36,6.36,0,0,0-1.71,4.7V97.64a8.78,8.78,0,0,1-2.47,6.49,9,9,0,0,1-6.63,2.46,8.58,8.58,0,0,1-6.34-2.46A8.77,8.77,0,0,1,0,97.64V43.51A49.12,49.12,0,0,1,3.37,24.64a39,39,0,0,1,8.94-13.49A37.06,37.06,0,0,1,25,3.1a40.24,40.24,0,0,1,28.93,0,36.92,36.92,0,0,1,12.67,8.05,39,39,0,0,1,9,13.49A49.12,49.12,0,0,1,78.9,43.51V97.79a8.58,8.58,0,0,1-2.46,6.34,9,9,0,0,1-6.64,2.46,8.52,8.52,0,0,1-6.41-2.46A8.73,8.73,0,0,1,61,97.79V43.51a28,28,0,0,0-1.86-10.66,23.56,23.56,0,0,0-4.85-7.61,19,19,0,0,0-6.93-4.55,22.58,22.58,0,0,0-8-1.49,21.88,21.88,0,0,0-7.9,1.49,19,19,0,0,0-6.86,4.55,23.39,23.39,0,0,0-4.85,7.61,27.82,27.82,0,0,0-1.86,10.66Z" transform="translate(-0.01 -0.41)"/><path d="M93.9,30.29a37.37,37.37,0,0,1,2.1-13,28.11,28.11,0,0,1,5.51-9.36A23,23,0,0,1,118.27.41a23,23,0,0,1,16.9,7.47,28.28,28.28,0,0,1,5.51,9.36,37.37,37.37,0,0,1,2.1,13.05V76.71q0,5.81,2.25,8.7c1.5,1.94,3.12,2.9,4.86,2.9s3.36-1,4.86-2.9,2.24-4.83,2.24-8.7V30.29a37.36,37.36,0,0,1,2.11-13,28.11,28.11,0,0,1,5.51-9.36,22.59,22.59,0,0,1,7.83-5.58A22.87,22.87,0,0,1,181.51.41a22.35,22.35,0,0,1,9,1.89,22.8,22.8,0,0,1,7.76,5.58,28.11,28.11,0,0,1,5.51,9.36,37.36,37.36,0,0,1,2.11,13.05V95.71a8.93,8.93,0,0,1-15,6.16,8.33,8.33,0,0,1-2.39-6.16V30.29c0-3.86-.72-6.77-2.17-8.7s-3.05-2.9-4.79-2.9-3.48,1-4.93,2.9-2.18,4.84-2.18,8.7V76.71a37.37,37.37,0,0,1-2.1,13.05,27.58,27.58,0,0,1-5.59,9.36,23.41,23.41,0,0,1-7.83,5.58,22.16,22.16,0,0,1-17.91,0,23.22,23.22,0,0,1-7.91-5.58,27.41,27.41,0,0,1-5.58-9.36,37.13,37.13,0,0,1-2.11-13.05V30.29c0-3.86-.72-6.77-2.17-8.7s-3.1-2.9-4.93-2.9-3.34,1-4.79,2.9-2.18,4.84-2.18,8.7V95.71a8.3,8.3,0,0,1-2.39,6.16,8.72,8.72,0,0,1-6.45,2.4,8.26,8.26,0,0,1-6.24-2.4,8.44,8.44,0,0,1-2.32-6.16Z" transform="translate(-0.01 -0.41)"/><path d="M383.28,9.36a8.73,8.73,0,0,1,2.5-6.45,8.77,8.77,0,0,1,6.45-2.5A9.16,9.16,0,0,1,399,2.91a8.73,8.73,0,0,1,2.5,6.45v54.3a8.57,8.57,0,0,1-9,9,9.12,9.12,0,0,1-6.75-2.5,8.73,8.73,0,0,1-2.5-6.45Zm8.49,97.23a8.51,8.51,0,1,1,0-17h51.88A7.83,7.83,0,0,1,452,97.94a8.71,8.71,0,0,1-2.27,6.3,8.07,8.07,0,0,1-6.07,2.35Z" transform="translate(-0.01 -0.41)"/><path d="M284.35,43.05a13.66,13.66,0,0,1,10.23-4.55,14.34,14.34,0,0,1,10.34,4.66,14.36,14.36,0,0,1,4.66,10.34A14.2,14.2,0,0,1,304.92,64a14.72,14.72,0,0,1-10.57,4.55,14,14,0,0,1-10.23-4.66,14.48,14.48,0,0,1-4.54-10.34,13.65,13.65,0,0,1,4.54-10.23Z" transform="translate(-0.01 -0.41)"/><path d="M315.58,106.2h-42a52.7,52.7,0,1,1,0-105.4h42a52.7,52.7,0,0,1,0,105.4Zm-42-88a35.3,35.3,0,1,0,0,70.6h42a35.3,35.3,0,1,0,0-70.6Z" transform="translate(-0.01 -0.41)"/></svg>